<?xml version="1.0" encoding="UTF-8"?>
<svg width="24px" height="24px" viewBox="0 0 24 24" version="1.1" xmlns="http://www.w3.org/2000/svg" xmlns:xlink="http://www.w3.org/1999/xlink">
    <title>首页</title>
    <g id="首页" stroke="none" stroke-width="1" fill="none" fill-rule="evenodd">
        <path d="M21.5,10.8 L13.5,4.8 C12.6,4.1 11.4,4.1 10.5,4.8 L2.5,10.8 C2.2,11.1 2,11.4 2,11.8 L2,20 C2,21.1 2.9,22 4,22 L20,22 C21.1,22 22,21.1 22,20 L22,11.8 C22,11.4 21.8,11.1 21.5,10.8 Z M12,18 C10.3,18 9,16.7 9,15 C9,13.3 10.3,12 12,12 C13.7,12 15,13.3 15,15 C15,16.7 13.7,18 12,18 Z" id="形状" fill="#999999" fill-rule="nonzero"></path>
    </g>
</svg> 